<svg width="50" height="70" viewBox="0 0 50 70" fill="none" xmlns="http://www.w3.org/2000/svg">
<g clip-path="url(#clip0_36_2577)">
<path d="M0 0.998047C6.95278 0.998047 13.8621 0.998047 20.8149 0.998047C20.9452 0.998047 21.1191 0.998047 21.2494 1.04144C21.3798 1.47542 21.4232 23.0005 21.2929 23.7817C21.0756 23.7817 20.8149 23.8251 20.5976 23.8251C13.9925 23.8251 7.38733 23.8251 0.782188 23.8251C0.478004 23.8251 0.260729 23.8685 0 23.8685C0 16.2305 0 8.63599 0 0.998047ZM17.1212 5.20759C12.8626 5.20759 8.64752 5.20759 4.4324 5.20759C4.30203 6.03214 4.34549 19.1382 4.47585 19.5721C5.51877 19.7023 16.6867 19.6589 17.1212 19.5287C17.2081 18.7042 17.2081 15.0154 17.0778 14.4946C14.2967 14.4946 11.5155 14.4946 8.69097 14.4946C8.69097 13.0625 8.64752 11.7172 8.69097 10.2851C10.125 10.2851 11.559 10.2851 12.9496 10.2851C14.3401 10.2851 15.7307 10.2851 17.1647 10.2851C17.1212 8.54919 17.1212 6.94349 17.1212 5.20759Z" fill="black"/>
<path d="M0 45.1332C1.43401 45.1332 2.6942 45.6106 3.82403 46.4786C3.91094 46.522 3.99785 46.6088 4.08476 46.6521C4.99731 47.4333 5.95332 47.4333 6.99623 46.9125C7.47424 46.6521 7.95224 46.4352 8.43024 46.1748C9.8208 45.4804 11.2548 45.3936 12.7323 45.9578C13.2537 46.1748 13.8186 46.3918 14.3401 46.6521C14.6877 46.7823 14.9919 46.9125 15.3396 47.0427C16.2087 47.3899 16.9909 47.3031 17.773 46.7823C18.251 46.4352 18.729 46.088 19.2505 45.8276C19.7285 45.5672 20.25 45.3502 20.7714 45.1766C20.9452 45.1332 21.1191 45.1332 21.3363 45.0898C21.3363 46.522 21.3363 47.8673 21.3363 49.256C20.25 49.3428 19.3809 49.8636 18.5118 50.4277C18.1207 50.6881 17.7296 50.9485 17.295 51.1655C16.7736 51.4693 16.2087 51.5127 15.6438 51.2957C15.2092 51.1221 14.7312 50.9485 14.2967 50.7749C13.7317 50.5579 13.1668 50.2541 12.5585 50.0371C11.2114 49.5598 9.86425 49.6032 8.56061 50.2107C7.9957 50.4711 7.47424 50.7315 6.95278 50.9919C5.90986 51.5561 4.95385 51.4693 4.0413 50.7315C3.69366 50.4277 3.30257 50.2107 2.91148 49.9504C1.99892 49.4296 1.04292 49.1258 0 49.256C0 47.9541 0 46.522 0 45.1332Z" fill="#353371"/>
<path d="M0 28.1215C1.43401 28.0781 2.65075 28.5988 3.73712 29.4234C3.99785 29.597 4.25858 29.7706 4.51931 29.9442C5.08422 30.2913 5.69259 30.3781 6.30096 30.1177C6.69205 29.9876 7.03969 29.814 7.38733 29.6404C7.86533 29.4234 8.29988 29.163 8.77788 28.946C9.90771 28.4252 11.081 28.3818 12.2543 28.7724C12.993 29.0328 13.6883 29.3366 14.3836 29.6404C16.2956 30.4649 16.6867 30.4215 18.4249 29.2498C19.0767 28.7724 19.772 28.2951 20.5542 28.1215C20.7714 28.0781 20.9887 28.0781 21.2494 28.0347C21.2494 29.4668 21.2494 30.8121 21.2494 32.2008C20.1196 32.2876 19.2505 32.8084 18.3814 33.4159C18.0338 33.6329 17.6861 33.8933 17.3385 34.0669C16.7736 34.3707 16.1652 34.4575 15.5134 34.2405C15.0354 34.0669 14.6008 33.8933 14.1228 33.6763C13.5579 33.4593 13.0365 33.199 12.4715 32.982C11.1244 32.5046 9.8208 32.548 8.51715 33.1556C7.95224 33.4159 7.43078 33.6763 6.90932 33.9367C5.86641 34.5009 4.9104 34.4141 3.99785 33.6763C3.65021 33.3725 3.25911 33.1556 2.86802 32.8952C2.04238 32.548 1.04292 32.2442 0 32.3744C0 30.9423 0 29.5536 0 28.1215Z" fill="#353371"/>
<path d="M-4.33196e-06 36.6274C1.43401 36.6274 2.65074 37.1048 3.73711 37.9294C3.95439 38.103 4.21512 38.2765 4.43239 38.4501C5.04076 38.8407 5.69258 38.9275 6.34441 38.6671C7.03968 38.3633 7.69151 38.0596 8.38678 37.7124C9.29934 37.2784 10.2553 37.018 11.2983 37.1916C11.9501 37.3218 12.6019 37.4954 13.2103 37.7558C13.8621 38.0162 14.5139 38.3199 15.1657 38.5803C16.1218 39.0143 16.9908 38.8841 17.8165 38.3199C18.3814 37.9294 18.9463 37.5388 19.5547 37.1916C20.0761 36.8878 20.6411 36.6708 21.2929 36.7142C21.2929 38.103 21.2929 39.4917 21.2929 40.8804C20.1631 40.9672 19.294 41.4879 18.4249 42.0955C18.0338 42.3559 17.6427 42.5729 17.2516 42.8333C16.7301 43.137 16.1652 43.1804 15.6003 42.9635C14.905 42.7031 14.2097 42.3993 13.5145 42.0955C12.8626 41.8351 12.2108 41.5747 11.559 41.4446C10.5161 41.2276 9.51661 41.4012 8.5606 41.8351C7.99569 42.0955 7.43078 42.3559 6.86586 42.6597C5.82295 43.2238 4.86694 43.137 3.95439 42.3993C3.60675 42.0955 3.21566 41.8785 2.82456 41.6181C1.91201 41.0974 0.956003 40.7936 -0.0869141 40.9238C-4.33196e-06 39.4483 -4.33196e-06 38.0162 -4.33196e-06 36.6274Z" fill="#353371"/>
<path d="M25.6818 50.9484C25.6818 43.3105 25.6818 35.7593 25.6818 28.1648C32.7215 28.1648 39.7612 28.1648 46.7574 28.1648C46.8878 28.6422 46.9313 50.3409 46.7574 50.9484C39.7612 50.9484 32.765 50.9484 25.6818 50.9484ZM42.6292 32.3743C38.3706 32.3743 34.1555 32.3743 29.9404 32.3743C29.81 33.1555 29.8535 46.2615 29.9839 46.7389C30.9833 46.8257 33.6775 46.8257 34.199 46.6521C34.199 45.9143 34.199 45.1766 34.199 44.4388C34.199 43.7011 34.199 42.9633 34.199 42.2689C34.199 41.5312 34.199 40.75 34.199 40.0123C34.199 39.2745 34.199 38.5368 34.199 37.7556C35.6764 37.7556 37.067 37.7556 38.4576 37.7556C39.8481 37.7556 41.2387 37.799 42.6292 37.7122C42.6292 35.8895 42.6292 34.1536 42.6292 32.3743ZM42.6292 46.7389C42.6292 45.1332 42.6292 43.5709 42.6292 42.0086C42.0209 41.835 38.8921 41.8784 38.3706 42.052C38.3706 43.6143 38.3272 45.1766 38.4141 46.7823C39.7177 46.7823 40.9345 46.7823 42.1512 46.7823C42.2816 46.7823 42.4554 46.7389 42.6292 46.7389Z" fill="black"/>
<path d="M25.6818 6.72659C25.6818 5.33787 25.6818 4.03595 25.6818 2.69063C25.8122 2.60384 25.9426 2.51704 26.0729 2.43025C27.5504 1.73589 28.9844 1.04153 30.4184 0.303776C30.766 0.130187 31.0702 0.130187 31.4179 0.303776C32.8519 1.04153 34.3293 1.73589 35.8068 2.43025C36.1544 2.60384 36.4586 2.60384 36.8063 2.43025C38.2403 1.69249 39.6743 0.998135 41.1083 0.303776C41.4559 0.130187 41.7601 0.130187 42.1078 0.303776C43.4983 0.998135 44.9323 1.73589 46.3663 2.38685C46.714 2.56044 46.8878 2.77743 46.8878 3.168C46.8443 4.29634 46.8878 5.46807 46.8878 6.72659C46.5836 6.5964 46.4098 6.553 46.1925 6.42281C44.8454 5.77185 43.4983 5.12089 42.1512 4.42653C41.7601 4.20954 41.4559 4.20954 41.0648 4.42653C39.6743 5.16428 38.2403 5.81525 36.8063 6.5096C36.4152 6.68319 36.111 6.68319 35.7634 6.5096C34.3293 5.77185 32.8953 5.12089 31.4613 4.38313C31.1137 4.20954 30.853 4.20954 30.4619 4.38313C29.1148 5.07749 27.7677 5.72845 26.4206 6.37941C26.2033 6.5096 25.986 6.5964 25.6818 6.72659Z" fill="#256633"/>
<path d="M25.7253 15.2324C25.7253 13.8437 25.7253 12.5418 25.7253 11.153C25.8556 11.0662 25.986 10.9794 26.1598 10.8927C27.5938 10.1983 28.9844 9.50393 30.4184 8.76618C30.8095 8.59259 31.1137 8.59259 31.4613 8.76618C32.8953 9.50393 34.3728 10.1983 35.8503 10.8927C36.1979 11.0662 36.4586 11.0662 36.7628 10.8927C38.1968 10.1549 39.6308 9.50393 41.0648 8.76618C41.4559 8.59259 41.7601 8.59259 42.1078 8.76618C43.4983 9.46054 44.8889 10.1549 46.3229 10.8059C46.714 10.9794 46.8878 11.1964 46.8878 11.6738C46.8443 12.6719 46.8878 13.6267 46.8878 14.6248C46.8878 14.7984 46.8443 14.9286 46.8443 15.189C46.5836 15.0588 46.3663 15.0154 46.1925 14.8852C44.8454 14.2342 43.5418 13.5833 42.1947 12.9323C41.8036 12.7153 41.4559 12.7153 41.0214 12.9323C39.6308 13.6701 38.1968 14.321 36.8063 15.0154C36.4152 15.2324 36.111 15.189 35.7199 15.0154C34.2859 14.321 32.8519 13.6267 31.4613 12.9323C31.1137 12.7587 30.8095 12.7153 30.4184 12.9323C29.0713 13.6267 27.7242 14.2776 26.3771 14.9286C26.1598 15.0154 25.9426 15.1022 25.7253 15.2324Z" fill="#256633"/>
<path d="M46.8009 23.7384C46.4967 23.6082 46.2794 23.5214 46.1056 23.4346C44.7585 22.7836 43.4114 22.1327 42.0643 21.4383C41.7167 21.2647 41.4125 21.2647 41.0648 21.4383C39.6308 22.1761 38.1968 22.827 36.7628 23.5648C36.4152 23.7384 36.111 23.7384 35.7634 23.5648C34.3728 22.8704 32.9822 22.2629 31.6351 21.5251C31.1137 21.2647 30.7226 21.2647 30.2011 21.5251C28.9409 22.1761 27.6807 22.7836 26.3771 23.3912C26.1598 23.478 25.986 23.5648 25.7253 23.695C25.7253 22.3063 25.7253 21.0044 25.7253 19.6156C25.8991 19.5288 26.0729 19.442 26.2467 19.3552C27.5938 18.6609 28.9844 18.0099 30.3315 17.3156C30.7226 17.0986 31.0702 17.0986 31.5048 17.3156C32.9388 18.0533 34.3728 18.7043 35.8068 19.442C36.1544 19.6156 36.4152 19.6156 36.7194 19.442C38.1534 18.7043 39.5874 18.0099 41.0214 17.3156C41.369 17.142 41.7167 17.0986 42.0643 17.3156C43.4549 18.0533 44.8889 18.7477 46.3229 19.3986C46.714 19.5722 46.8443 19.7892 46.8443 20.2232C46.8009 21.2213 46.8443 22.1761 46.8443 23.1742C46.8443 23.3044 46.8009 23.478 46.8009 23.7384Z" fill="#256633"/>
</g>
<defs>
<clipPath id="clip0_36_2577">
<rect width="323" height="70" fill="white"/>
</clipPath>
</defs>
</svg>
