<svg width="288" height="69" viewBox="0 0 288 69" fill="none" xmlns="http://www.w3.org/2000/svg">
<path fill-rule="evenodd" clip-rule="evenodd" d="M63.6288 17.5698L102.487 1.82445e-06V41.0531L40.6773 69V52.6065C43.7892 54.3957 47.4013 55.4235 51.2474 55.4235C62.8871 55.4235 72.3807 46.0231 72.3807 34.4984C72.3807 27.5506 68.9272 21.3792 63.6288 17.5698ZM3.05176e-05 27.9469L61.8114 1.82445e-06V16.3958C58.6995 14.6074 55.0904 13.5793 51.2474 13.5793C39.6015 13.5793 30.1078 22.9769 30.1078 34.4984C30.1078 41.4523 33.5614 47.6229 38.8568 51.4323L3.05176e-05 69V27.9469Z" fill="#86A1AE"/>
<path fill-rule="evenodd" clip-rule="evenodd" d="M51.2448 23.4336C57.3321 23.4336 62.2703 28.3858 62.2703 34.497C62.2703 40.6082 57.3321 45.5657 51.2448 45.5657C45.1515 45.5657 40.2162 40.6082 40.2162 34.497C40.2162 28.3858 45.1515 23.4336 51.2448 23.4336Z" fill="#ED3123"/>
<path fill-rule="evenodd" clip-rule="evenodd" d="M206.682 47.7407H204.005C202.042 47.7407 201.128 47.3883 201.128 45.9748C201.128 44.5609 202.012 44.2644 203.903 44.2644H206.682V47.7407ZM208.126 42.9336H203.429C200.921 42.9336 199.684 43.8856 199.684 45.9319C199.684 47.6445 200.538 48.5808 202.265 48.8476L199.529 53.1111H201.128L203.696 48.9308H206.682V53.1111H208.126V42.9336ZM188.102 42.9336V53.1111H190.053L196.445 44.4354V53.1111H197.846V42.9336H195.914L189.503 51.6085V42.9336H188.102ZM178.133 42.9336H176.689V53.1111H178.133V48.3032H184.33V53.1111H185.775V42.9336H184.33V46.9701H178.133V42.9336ZM168.135 48.8772L170.196 44.5449L172.147 48.8772H168.135ZM164.658 53.1111H166.185L167.532 50.2081H172.734L174.026 53.1111H175.523L170.994 42.9336H169.494L164.658 53.1111ZM154.407 42.9336V53.1111H155.851V44.2644H162.048V53.1111H163.492V42.9336H154.407ZM139.808 42.9336V53.1111H141.212V44.1798L145.181 53.1111H146.638L150.678 44.1798V53.1111H152.079V42.9336H149.934L145.909 51.793L141.983 42.9336H139.808ZM128.396 48.0212C128.396 45.5264 129.882 44.0248 132.461 44.0248C135.055 44.0248 136.542 45.5264 136.542 48.0212C136.542 50.5014 135.068 52.0168 132.474 52.0168C129.882 52.0168 128.396 50.5181 128.396 48.0212ZM126.894 48.0212C126.894 51.2592 128.999 53.3772 132.461 53.3772C135.938 53.3772 138.044 51.2592 138.044 48.0212C138.044 44.7846 135.938 42.6697 132.474 42.6697C128.999 42.6697 126.894 44.7846 126.894 48.0212ZM118.764 42.9336H117.32V53.1111H118.764V49.7309L120.755 48.0212L124.876 53.1111H126.57L121.721 47.1673L126.56 42.9336H124.707L118.764 48.1626V42.9336ZM286.554 30.9639H283.879C281.913 30.9639 281.002 30.6145 281.002 29.2004C281.002 27.7842 281.886 27.4876 283.781 27.4876H286.554V30.9639ZM288 26.1568H283.303C280.794 26.1568 279.56 27.1088 279.56 29.1549C279.56 30.8648 280.414 31.804 282.137 32.0708L279.405 36.3336H281.002L283.571 32.1533H286.554V36.3336H288V26.1568ZM271.495 32.1004L273.557 27.7681L275.505 32.1004H271.495ZM268.015 36.3336H269.545L270.894 33.4312H276.095L277.382 36.3336H278.887L274.355 26.1568H272.857L268.015 36.3336ZM260.18 26.1568H258.734V36.3336H260.18V32.954L262.169 31.2436L266.294 36.3336H267.989L263.137 30.3876L267.976 26.1568H266.124L260.18 31.385V26.1568ZM257.066 32.3938H255.565C255.328 34.1066 253.925 35.237 251.92 35.237C249.339 35.237 247.84 33.7405 247.84 31.2436C247.84 28.7497 249.325 27.2502 251.904 27.2502C253.854 27.2502 255.173 28.2318 255.451 29.8568H256.952C256.745 27.5013 254.767 25.893 251.92 25.893C248.439 25.893 246.337 28.0079 246.337 31.2436C246.337 34.4802 248.439 36.5982 251.904 36.5982C254.791 36.5982 256.8 34.9277 257.066 32.3938ZM236.875 36.3336H245.061V35.0028H238.32V31.7911H244.557V30.4595H238.32V27.4876H244.965V26.1568H236.875V36.3336ZM226.018 26.1568V29.4378C226.018 31.9748 228.151 32.5194 229.875 32.5194C231.265 32.5194 232.133 32.3507 233.099 32.1004V36.3336H234.543V26.1568H233.099V30.9343C232.148 31.1453 231.108 31.2573 229.959 31.2573C228.754 31.2573 227.465 30.8246 227.465 29.4378V26.1568H226.018ZM213.947 26.1568V36.3336H215.895L222.291 27.6586V36.3336H223.69V26.1568H221.756L215.348 34.8318V26.1568H213.947ZM204.916 26.1568V36.3336H206.363V27.4876H212.587V26.1568H204.916ZM196.151 27.3464H198.93C200.821 27.3464 201.704 27.7681 201.704 29.2004C201.704 30.486 200.795 30.9502 198.83 30.9502H196.151V27.3464ZM196.151 32.1406H199.378C201.887 32.1406 203.151 31.2172 203.151 29.1549C203.151 27.1088 201.916 26.1568 199.404 26.1568H194.707V36.3336H196.151V32.1406ZM183.415 26.1568L187.851 34.44C187.333 35.2666 187.176 35.408 186.591 35.408C186.209 35.408 185.958 35.3922 185.691 35.3497V36.5044C186.014 36.5604 186.418 36.5982 186.812 36.5982C187.735 36.5982 188.523 36.2752 189.295 34.7197L193.573 26.1568H191.918L188.595 33.1084L185.072 26.1568H183.415ZM173.674 26.1568V31.1453C173.674 33.9779 173.436 35.3383 172.299 35.3383C172.006 35.3383 171.752 35.3097 171.627 35.2825V36.4327C171.95 36.4885 172.299 36.531 172.609 36.531C174.079 36.531 175.117 35.5471 175.117 31.5931V27.4876H180.853V36.3336H182.297V26.1568H173.674ZM161.797 26.1568V31.1453C161.797 33.9779 161.559 35.3383 160.422 35.3383C160.129 35.3383 159.878 35.3097 159.75 35.2825V36.4327C160.073 36.4885 160.422 36.531 160.729 36.531C162.205 36.531 163.243 35.5471 163.243 31.5931V27.4876H168.976V36.3336H170.42V26.1568H161.797ZM152.317 32.1004L154.38 27.7681L156.329 32.1004H152.317ZM148.84 36.3336H150.366L151.714 33.4312H156.918L158.207 36.3336H159.707L155.178 26.1568H153.678L148.84 36.3336ZM140.777 26.1568V27.4876H144.663V36.3336H146.106V27.4876H149.99V26.1568H140.777ZM131.913 36.3336H140.104V35.0028H133.357V31.7911H139.597V30.4595H133.357V27.4876H140.008V26.1568H131.913V36.3336ZM117.32 26.1568V36.3336H118.718V27.4022L122.687 36.3336H124.147L128.185 27.4022V36.3336H129.586V26.1568H127.443L123.419 35.0133L119.49 26.1568H117.32ZM247.71 14.1871H245.033C243.07 14.1871 242.161 13.8377 242.161 12.4207C242.161 11.0043 243.042 10.7108 244.936 10.7108H247.71V14.1871ZM249.159 9.38003H244.457C241.949 9.38003 240.716 10.332 240.716 12.3782C240.716 14.088 241.569 15.0241 243.297 15.2964L240.558 19.5568H242.161L244.724 15.3797H247.71V19.5568H249.159V9.38003ZM232.65 15.3236L234.714 10.9908L236.662 15.3236H232.65ZM229.176 19.5568H230.702L232.05 16.6544H237.252L238.543 19.5568H240.04L235.515 9.38003H234.012L229.176 19.5568ZM220.369 9.38003H218.924V19.5568H220.369V14.7474H226.565V19.5568H228.01V9.38003H226.565V13.4158H220.369V9.38003ZM208.955 9.38003H207.509V19.5568H208.955V14.7474H215.154V19.5568H216.594V9.38003H215.154V13.4158H208.955V9.38003ZM197.485 19.5568H205.673V18.2229H198.93V15.0135H205.169V13.6827H198.93V10.7108H205.575V9.38003H197.485V19.5568ZM187.511 9.38003H186.068V19.5568H187.511V14.7474H193.711V19.5568H195.158V9.38003H193.711V13.4158H187.511V9.38003ZM173.996 9.38003V19.5568H175.945L182.339 10.8787V19.5568H183.74V9.38003H181.808L175.398 18.055V9.38003H173.996ZM163.662 9.38003V13.3893C163.662 16.0942 163.228 17.1189 162.472 18.2229H161.514V22.446H162.931V19.5568H171.151V22.446H172.568V18.2229H171.557V9.38003H163.662ZM170.113 10.7108V18.2229H164.028C164.754 17.1189 165.064 16.0086 165.064 13.5276V10.7108H170.113ZM152.386 19.5568H160.577V18.2229H153.831V15.0135H160.073V13.6827H153.831V10.7108H160.478V9.38003H152.386V19.5568ZM143.568 14.7474H146.246C148.21 14.7474 149.106 15.0992 149.106 16.513C149.106 17.9294 148.226 18.2229 146.33 18.2229H143.568V14.7474ZM138.628 9.38003V10.7108H142.125V19.5568H146.819C149.333 19.5568 150.55 18.6017 150.55 16.5585C150.55 14.4933 149.288 13.4158 146.779 13.4158H143.568V9.38003H138.628ZM131.118 14.7474H133.795C135.756 14.7474 136.656 15.0992 136.656 16.513C136.656 17.9294 135.773 18.2229 133.88 18.2229H131.118V14.7474ZM129.671 9.38003V19.5568H134.369C136.88 19.5568 138.1 18.6017 138.1 16.5585C138.1 14.4933 136.837 13.4158 134.329 13.4158H131.118V10.7108H137.286V9.38003H129.671ZM118.257 14.4668C118.257 11.9729 119.744 10.4734 122.324 10.4734C124.916 10.4734 126.405 11.9729 126.405 14.4668C126.405 16.9479 124.932 18.4603 122.334 18.4603C119.744 18.4603 118.257 16.9616 118.257 14.4668ZM116.757 14.4668C116.757 17.7055 118.86 19.8238 122.324 19.8238C125.799 19.8238 127.902 17.7055 127.902 14.4668C127.902 11.2282 125.799 9.11305 122.334 9.11305C118.86 9.11305 116.757 11.2282 116.757 14.4668Z" fill="#86A1AE"/>
</svg>
