<svg width="156" height="82" viewBox="0 0 156 82" fill="none" xmlns="http://www.w3.org/2000/svg">
<path d="M78.5162 70.7469L109.51 81.0027V0.00268555L78.5162 10.2585V70.7469V70.7469Z" fill="#4CC7E9"/>
<path d="M-0.000915527 30.5778H5.28361V33.6756C5.91726 32.5868 6.81043 31.687 7.87648 31.0633C8.94253 30.4397 10.1453 30.1135 11.3681 30.1162C16.0315 30.1162 19.6282 33.7219 19.6282 40.2414V40.5652C19.6282 47.0836 16.0759 50.7829 11.3681 50.7829C10.1523 50.8336 8.9458 50.5426 7.87522 49.9406C6.80464 49.3385 5.90945 48.4476 5.28361 47.3612V57.1162H-0.000915527V30.5778ZM14.2538 40.6104V40.2865C14.2538 36.2645 12.349 34.3223 9.72371 34.3223C6.97245 34.3223 5.06033 36.3052 5.06033 40.2865V40.6104C5.06033 44.5862 6.88145 46.5284 9.72371 46.5284C12.6559 46.481 14.2538 44.4474 14.2538 40.6104Z" fill="white"/>
<path d="M22.7279 43.6064V31.1553H28.2273V42.84C28.2273 45.4564 29.3457 46.7195 31.6767 46.7195C34.0077 46.7195 35.8246 45.322 35.8246 42.4788V31.1553H41.324V50.4635H35.8712V47.4408C35.275 48.5482 34.3573 49.4628 33.231 50.0721C32.1048 50.6813 30.8191 50.9586 29.5322 50.8698C25.6153 50.8698 22.7279 48.6587 22.7279 43.6064V43.6064Z" fill="white"/>
<path d="M45.4559 21.8105H50.6214V49.849H45.4559V21.8105Z" fill="white"/>
<path d="M55.2605 44.7783V34.9646H52.6876V31.166H55.2605V27.0054H60.7808V31.166H64.9913V34.9646H60.7808V44.2805C60.7808 45.8182 61.5757 46.5866 62.9792 46.5866C63.7 46.6148 64.4185 46.4913 65.085 46.2245V50.3894C64.001 50.7452 62.8606 50.9137 61.7161 50.8873C57.5536 50.8841 55.2605 48.8032 55.2605 44.7783V44.7783Z" fill="white"/>
<path d="M123.973 30.4016H129.235V34.1277C129.721 32.8913 130.57 31.8415 131.664 31.1247C132.757 30.4078 134.042 30.0597 135.337 30.1287V35.1272C131.446 35.0817 129.235 36.3996 129.235 40.1257V49.8509H123.973V30.4016Z" fill="white"/>
<path d="M137.404 42.57V30.1189H142.904V41.8036C142.904 44.42 144.022 45.6831 146.352 45.6831C148.682 45.6831 150.5 44.2856 150.5 41.4424V30.1189H156V49.4271H150.5V46.4044C149.904 47.5118 148.986 48.4264 147.86 49.0357C146.733 49.6449 145.448 49.9222 144.161 49.8335C140.291 49.8335 137.404 47.6223 137.404 42.57V42.57Z" fill="white"/>
</svg>
