<svg width="178" height="50" viewBox="0 0 178 50" fill="none" xmlns="http://www.w3.org/2000/svg">
<path d="M43.7713 9.65527C44.9321 11.1815 45.9148 12.8395 46.6994 14.5962L24.4412 31.2826L15.139 25.3524V18.218L24.4412 24.1482L43.7713 9.65527Z" fill="#21A038"/>
<path d="M5.64511 24.8493C5.64511 24.5292 5.65279 24.2111 5.66814 23.895L0.0307025 23.614C0.0115145 24.0238 6.81258e-06 24.4375 6.81258e-06 24.8551C-0.00239176 28.1175 0.6286 31.3483 1.8568 34.362C3.08499 37.3759 4.88621 40.1135 7.15713 42.4176L11.1559 38.3529C9.40784 36.5823 8.02108 34.4778 7.07535 32.1604C6.12962 29.843 5.64357 27.3583 5.64511 24.8493Z" fill="url(#paint0_linear_36_2502)"/>
<path d="M24.4358 5.73907C24.7504 5.73907 25.0631 5.75079 25.374 5.76639L25.656 0.0312413C25.2519 0.0117273 24.8451 0.00197156 24.4358 0.00197156C21.2263 -0.00200882 18.0478 0.638777 15.0826 1.88753C12.1174 3.13629 9.42395 4.96843 7.15692 7.27874L11.1557 11.3454C12.8968 9.56709 14.9664 8.15627 17.2455 7.19414C19.5245 6.232 21.968 5.73749 24.4358 5.73907Z" fill="url(#paint1_linear_36_2502)"/>
<path d="M24.4359 43.9596C24.1213 43.9596 23.8084 43.9596 23.4958 43.9342L23.2137 49.6674C23.6192 49.6882 24.0266 49.6987 24.4359 49.6987C27.6441 49.702 30.821 49.0608 33.7846 47.8117C36.7483 46.5626 39.4399 44.7302 41.7052 42.42L37.7141 38.3552C35.9727 40.1326 33.9033 41.5426 31.6247 42.5044C29.3461 43.4662 26.903 43.9608 24.4359 43.9596Z" fill="url(#paint2_linear_36_2502)"/>
<path d="M35.0277 9.07403L39.7786 5.51273C35.4362 1.93672 30.0157 -0.00992662 24.4281 3.80668e-05V5.73909C28.2118 5.73432 31.9076 6.89719 35.0277 9.07403Z" fill="url(#paint3_linear_36_2502)"/>
<path d="M48.8702 24.8496C48.8732 23.3566 48.7448 21.8662 48.4863 20.3965L43.227 24.3383C43.227 24.5082 43.227 24.6779 43.227 24.8496C43.2283 27.5196 42.6779 30.1602 41.6117 32.6001C40.5453 35.04 38.9866 37.2247 37.0369 39.0128L40.8304 43.2767C43.3652 40.9494 45.3908 38.1064 46.7758 34.9321C48.1609 31.7576 48.8744 28.3225 48.8702 24.8496Z" fill="#21A038"/>
<path d="M24.4357 43.9593C21.81 43.9602 19.2134 43.4003 16.814 42.3159C14.4146 41.2315 12.2659 39.6466 10.5071 37.6641L6.31641 41.52C8.6045 44.0983 11.3999 46.1586 14.5214 47.5676C17.6428 48.9764 21.0205 49.7024 24.4357 49.6983V43.9593Z" fill="url(#paint4_linear_36_2502)"/>
<path d="M11.8352 10.6862L8.04363 6.42236C5.50807 8.74916 3.48173 11.592 2.09602 14.7665C0.71033 17.9409 -0.00377788 21.3761 1.50303e-05 24.8494H5.64513C5.64396 22.1795 6.1944 19.5389 7.26073 17.099C8.32707 14.6592 9.88555 12.4744 11.8352 10.6862Z" fill="url(#paint5_linear_36_2502)"/>
<path d="M139.877 14.7465L146.834 9.61304H123.549V40.4604H146.834V35.327H130.193V27.4254H144.389V22.292H130.193V14.7465H139.877Z" fill="#21A038"/>
<path d="M107.883 21.6302H99.7986V14.7445H112.7L119.653 9.59546H93.1584V40.4429H107.027C114.803 40.4429 119.266 36.9134 119.266 30.758C119.266 24.8693 115.224 21.6302 107.883 21.6302ZM106.728 35.3078H99.7986V26.7604H106.728C110.934 26.7604 112.906 28.1928 112.906 31.0342C112.906 33.8754 110.808 35.3078 106.728 35.3078Z" fill="#21A038"/>
<path d="M163.951 9.60815H151.276V40.4554H157.919V31.7169H163.951C172.037 31.7169 177.04 27.4554 177.04 20.6461C177.04 13.837 172.037 9.60815 163.951 9.60815ZM163.811 26.5796H157.919V14.7455H163.811C168.064 14.7455 170.412 16.8482 170.412 20.6649C170.412 24.4816 168.064 26.5796 163.811 26.5796Z" fill="#21A038"/>
<path d="M83.1886 33.1758C81.4724 34.1066 79.5496 34.5885 77.5983 34.577C71.7576 34.577 67.5205 30.401 67.5205 24.6506C67.5205 18.9 71.7576 14.7149 77.5983 14.7149C79.7045 14.6791 81.7671 15.3188 83.4846 16.5406L88.1317 13.113L87.8174 12.8894C85.1066 10.5025 81.4846 9.23828 77.3387 9.23828C72.8418 9.23828 68.7643 10.7535 65.853 13.5101C64.3809 14.9294 63.2168 16.6374 62.4329 18.5274C61.6491 20.4175 61.2623 22.449 61.2971 24.4953C61.2659 26.5625 61.6509 28.6147 62.4289 30.5296C63.207 32.4445 64.3622 34.1826 65.8257 35.6404C68.7506 38.5065 72.8191 40.0856 77.284 40.0856C81.9493 40.0856 86.0269 38.4562 88.7879 35.4898L84.6282 32.3864L83.1886 33.1758Z" fill="#21A038"/>
<defs>
<linearGradient id="paint0_linear_36_2502" x1="8.29882" y1="41.7015" x2="1.94376" y2="23.6372" gradientUnits="userSpaceOnUse">
<stop offset="0.14" stop-color="#F1E813"/>
<stop offset="0.3" stop-color="#E6E418"/>
<stop offset="0.58" stop-color="#C9DA26"/>
<stop offset="0.89" stop-color="#A2CC39"/>
</linearGradient>
<linearGradient id="paint1_linear_36_2502" x1="8.76871" y1="8.29346" x2="24.7214" y2="2.31564" gradientUnits="userSpaceOnUse">
<stop offset="0.06" stop-color="#0FA7DF"/>
<stop offset="0.54" stop-color="#0098F8"/>
<stop offset="0.92" stop-color="#0290EA"/>
</linearGradient>
<linearGradient id="paint2_linear_36_2502" x1="22.8415" y1="46.2349" x2="40.8342" y2="42.2381" gradientUnits="userSpaceOnUse">
<stop offset="0.12" stop-color="#A2CC39"/>
<stop offset="0.28" stop-color="#86C239"/>
<stop offset="0.87" stop-color="#219F38"/>
</linearGradient>
<linearGradient id="paint3_linear_36_2502" x1="23.2539" y1="1.92216" x2="38.6563" y2="6.5959" gradientUnits="userSpaceOnUse">
<stop offset="0.06" stop-color="#0290EA"/>
<stop offset="0.79" stop-color="#0C89CA"/>
</linearGradient>
<linearGradient id="paint4_linear_36_2502" x1="7.73247" y1="40.8214" x2="24.5173" y2="46.9897" gradientUnits="userSpaceOnUse">
<stop offset="0.13" stop-color="#F1E813"/>
<stop offset="0.3" stop-color="#EAE616"/>
<stop offset="0.53" stop-color="#D8DF1F"/>
<stop offset="0.8" stop-color="#BAD52D"/>
<stop offset="0.98" stop-color="#A2CC39"/>
</linearGradient>
<linearGradient id="paint5_linear_36_2502" x1="2.10302" y1="25.544" x2="9.01251" y2="7.87022" gradientUnits="userSpaceOnUse">
<stop offset="0.07" stop-color="#A2CC39"/>
<stop offset="0.26" stop-color="#81C45E"/>
<stop offset="0.92" stop-color="#0FA7DF"/>
</linearGradient>
</defs>
</svg>
