<svg width="294" height="47" viewBox="0 0 294 47" fill="none" xmlns="http://www.w3.org/2000/svg">
<g clip-path="url(#clip0_36_2518)">
<path d="M26.6603 36.0929C24.6302 39.2039 21.0824 41.152 16.7086 41.152C9.80704 41.152 5.26406 36.2205 5.26406 29.5077C5.26406 22.5201 9.78216 17.8634 16.7086 17.8634C18.4028 17.8349 20.0832 18.1685 21.6344 18.841C23.1856 19.5135 24.5709 20.5092 25.695 21.7595L29.1135 18.3246C27.5303 16.6491 25.6081 15.32 23.4713 14.4232C21.3345 13.5264 19.0306 13.0818 16.7086 13.1183C6.96581 13.1036 -0.000427246 19.6642 -0.000427246 29.5077C-0.000427246 38.9635 6.96581 45.9069 16.6887 45.9069C22.4756 45.9069 27.2226 43.5074 30.1534 39.6161L26.6603 36.0929Z" fill="#038C73"/>
<path d="M286.477 45.9074L273.933 32.4348H268.077C268.077 40.0298 268.077 44.5206 268.142 45.9074H262.768C262.838 42.7342 262.838 37.4537 262.838 30.0561C262.838 22.6585 262.838 17.378 262.768 14.2097H268.142C268.077 16.9141 268.077 21.3408 268.077 27.5343H274.053L286.206 14.2097H292.92L278.87 29.5922L293.999 45.9074H286.477Z" fill="#F65E64"/>
<path d="M59.2539 45.9074L46.7054 32.4397H40.8427C40.8427 40.0298 40.8427 44.5206 40.913 45.9074H35.5372C35.6075 42.7391 35.6075 37.4537 35.6075 30.061C35.6075 22.6684 35.6075 17.3829 35.5372 14.2097H40.9331C40.8628 16.919 40.8628 21.3458 40.8628 27.5343H46.8259L58.9829 14.2097H65.7039L51.6495 29.5971L66.768 45.8827L59.2539 45.9074Z" fill="#038C73"/>
<path d="M84.6056 14.8905C80.4023 14.719 76.2987 16.1917 73.1746 18.9929C73.4454 16.7774 74.3429 14.6837 75.7629 12.9551C77.1829 11.2265 79.067 9.93404 81.1964 9.22777C86.4757 7.50304 93.3193 10.0403 100.138 3.84423L96.2723 0.000976562C91.3088 4.66672 85.2424 2.65786 80.5045 3.92897C76.888 4.91073 73.6936 7.04123 71.4081 9.99575C69.1225 12.9503 67.8713 16.5667 67.8452 20.294V20.294V30.9314C67.8435 34.0827 68.7742 37.1648 70.5214 39.7939C72.2686 42.4231 74.7551 44.4831 77.6713 45.7175C80.5875 46.9519 83.8045 47.3061 86.9217 46.7359C90.0388 46.1658 92.9184 44.6965 95.2018 42.5111C97.4853 40.3257 99.0716 37.5207 99.7634 34.4455C100.455 31.3702 100.222 28.1606 99.0922 25.2162C97.9626 22.2719 95.9869 19.723 93.411 17.887C90.8351 16.0509 87.7729 15.0088 84.6056 14.8905ZM84.8613 41.7284C82.6382 41.9099 80.4127 41.4086 78.4854 40.2921C76.5581 39.1757 75.0219 37.4979 74.0844 35.4856C73.1468 33.4732 72.8532 31.2233 73.243 29.0397C73.6329 26.8561 74.6875 24.8441 76.2643 23.2755C77.8412 21.7069 79.8643 20.6574 82.0604 20.2687C84.2564 19.8799 86.5195 20.1708 88.544 21.1019C90.5684 22.033 92.2566 23.5595 93.3805 25.4752C94.5044 27.3909 95.0098 29.6034 94.8284 31.8138C94.6159 34.3693 93.4997 36.7674 91.6779 38.5824C89.856 40.3975 87.4463 41.5121 84.8764 41.7284H84.8613Z" fill="#038C73"/>
<path d="M172.942 14.8908C168.742 14.7214 164.642 16.1939 161.519 18.9933C161.79 16.7777 162.687 14.684 164.106 12.9554C165.525 11.2268 167.407 9.93424 169.535 9.22795C174.815 7.50319 181.648 10.0405 188.462 3.8443L184.559 0.000976562C179.604 4.66681 173.538 2.65791 168.804 3.92905C165.19 4.91157 161.999 7.04231 159.715 9.99672C157.432 12.9511 156.181 16.5673 156.154 20.2944V20.2944V30.9321C156.152 34.0823 157.082 37.1633 158.827 39.7919C160.572 42.4204 163.055 44.4804 165.967 45.7153C168.88 46.9503 172.093 47.3057 175.207 46.7375C178.321 46.1692 181.198 44.7023 183.481 42.5193C185.763 40.3363 187.35 37.5336 188.044 34.4601C188.738 31.3865 188.508 28.1777 187.383 25.233C186.259 22.2884 184.288 19.7379 181.718 17.899C179.147 16.0601 176.09 15.014 172.927 14.8908H172.942ZM173.197 41.7293C170.976 41.9108 168.752 41.4094 166.826 40.2929C164.9 39.1764 163.365 37.4987 162.428 35.4863C161.492 33.4739 161.198 31.2239 161.588 29.0403C161.977 26.8566 163.031 24.8446 164.607 23.276C166.182 21.7074 168.204 20.6578 170.398 20.2691C172.593 19.8803 174.854 20.1712 176.877 21.1023C178.9 22.0335 180.587 23.56 181.71 25.4757C182.833 27.3914 183.338 29.604 183.156 31.8144C182.944 34.3724 181.826 36.7724 180.003 38.5878C178.179 40.4031 175.768 41.5163 173.197 41.7293V41.7293Z" fill="#F65E64"/>
<path d="M250.006 45.9074V32.1711H233.537V45.9074H228.308V14.2097H233.537V27.2846H250.006V14.2097H255.231V45.9074H250.006Z" fill="#F65E64"/>
<path d="M221.771 39.9479C221.129 40.9975 220.207 41.5369 219.132 41.2672C218.637 41.1298 218.202 40.8336 217.894 40.4246C217.586 40.0157 217.423 39.517 217.43 39.0063V23.5527C217.43 17.5154 212.211 13.1162 205.147 13.1162C200.777 13.1162 197.141 14.5385 194.912 16.8288L198.444 20.3403C199.598 18.869 201.897 17.8882 204.753 17.8882C209.044 17.8882 212.152 20.5757 212.152 24.1853V26.5492C207.268 27.074 203.835 27.5301 201.793 27.9911C195.455 29.3055 191.691 32.6503 191.691 37.7067C191.691 42.611 195.637 45.9067 201.729 45.9067C206.02 45.9067 209.518 45.019 212.29 41.8018C212.882 44.6267 215.654 45.9067 219.156 45.9067C220.284 45.9144 221.4 45.674 222.423 45.2025C223.446 44.7311 224.352 44.0404 225.075 43.1799L221.805 39.9283L221.771 39.9479ZM212.147 36.0245C211.024 37.5783 209.548 38.846 207.839 39.724C206.129 40.6019 204.235 41.0652 202.311 41.0759C199.208 41.0759 197.161 39.7125 197.161 37.1525C197.161 35.0534 198.814 33.4938 201.65 32.7042C203.83 32.1157 207.328 31.8705 212.147 31.277V36.0245Z" fill="#F65E64"/>
<path d="M134.614 26.5458L122.498 13.1162L118.46 16.7488L130.956 30.6046L134.614 26.5458Z" fill="#038C73"/>
<path d="M134.283 26.2312L118.46 43.5098L122.397 46.9986L137.845 30.119L134.283 26.2312Z" fill="#F65E64"/>
</g>
<defs>
<clipPath id="clip0_36_2518">
<rect width="294" height="47" fill="white"/>
</clipPath>
</defs>
</svg>
