<svg width="102" height="73" viewBox="0 0 102 73" fill="none" xmlns="http://www.w3.org/2000/svg">
<g clip-path="url(#clip0_36_2530)">
<path d="M-0.000495911 72.9985H102V-0.00147228H-0.000495911V72.9985V72.9985Z" fill="#BFDF14"/>
<path d="M17.698 53.0458C17.5235 52.4074 17.1774 51.1702 15.3578 51.1702C14.3002 51.1702 12.7018 51.9283 12.7018 54.9115C12.7018 56.8058 13.5007 58.5612 15.3578 58.5612C16.5799 58.5612 17.4372 57.8219 17.698 56.5263H19.8945C19.4593 58.828 17.9615 60.428 15.3176 60.428C12.5147 60.428 10.5079 58.5182 10.5079 54.8811C10.5079 51.1829 12.6308 49.3073 15.3451 49.3073C18.5008 49.3073 19.7746 51.4894 19.8945 53.0458H17.698V53.0458Z" fill="#5D6163"/>
<path d="M22.5851 55.2905L25.1674 52.3195H27.6826L24.9374 55.3457L27.7563 60.1521H25.2989L23.4364 56.7879L22.5851 57.6783V60.1521H20.5355V52.3195H22.5851V55.2905V55.2905Z" fill="#5D6163"/>
<path d="M35.2548 56.2196C35.2548 59.0429 33.3647 60.3567 31.2721 60.3567C29.1829 60.3567 27.2774 59.0622 27.2774 56.2378C27.2774 53.4111 29.1829 52.115 31.2721 52.115C33.3647 52.115 35.2548 53.3957 35.2548 56.2196ZM29.3848 56.2196C29.3848 57.223 29.6885 58.6195 31.2721 58.6195C32.8563 58.6195 33.1468 57.2384 33.1468 56.2378C33.1468 55.2311 32.8563 53.8494 31.2721 53.8494C29.6885 53.8494 29.3848 55.2156 29.3848 56.2196Z" fill="#5D6163"/>
<path d="M42.9582 52.3191V60.1523H40.9086V53.9675H38.7153V56.3829C38.7153 59.3788 37.8151 60.3237 36.3751 60.3237C36.0169 60.3237 35.4314 60.2658 35.1283 60.1523V58.6207C35.1706 58.651 35.4314 58.6791 35.7346 58.6791C36.3503 58.6791 36.6689 58.3748 36.6689 55.9898V52.3191H42.9582V52.3191Z" fill="#5D6163"/>
<path d="M46.0556 55.2905L48.6379 52.3195H51.153L48.4051 55.3457L51.2268 60.1521H48.7694L46.9101 56.7879L46.0556 57.6783V60.1521H44.0059V52.3195H46.0556V55.2905V55.2905Z" fill="#5D6163"/>
<path d="M58.7255 56.2196C58.7255 59.0429 56.8388 60.3567 54.7462 60.3567C52.6536 60.3567 50.7514 59.0622 50.7514 56.2378C50.7514 53.4111 52.6536 52.115 54.7462 52.115C56.8388 52.115 58.7255 53.3957 58.7255 56.2196ZM52.8594 56.2196C52.8594 57.223 53.1626 58.6195 54.7462 58.6195C56.3232 58.6195 56.6242 57.2384 56.6242 56.2378C56.6242 55.2311 56.3232 53.8494 54.7462 53.8494C53.1626 53.8494 52.8594 55.2156 52.8594 56.2196Z" fill="#5D6163"/>
<path d="M59.3909 52.3184H62.9201C64.6661 52.3184 65.9432 53.034 65.9432 54.3417C65.9432 55.2437 65.3032 55.8237 64.4878 56.0293C65.2873 56.2206 66.1754 56.7322 66.1754 58.013C66.1754 59.464 65.0793 60.1521 63.3086 60.1521H59.3909V52.3184V52.3184ZM61.4367 55.4896H62.7727C63.4528 55.4896 63.9342 55.2167 63.9342 54.6025C63.9342 53.9635 63.4709 53.7309 62.7881 53.7309H61.4367V55.4896V55.4896ZM61.4367 58.7402H62.9438C63.7009 58.7402 64.1697 58.507 64.1697 57.7329C64.1697 57.0487 63.6762 56.7322 62.9201 56.7322H61.4367V58.7402V58.7402Z" fill="#5D6163"/>
<path d="M74.38 56.2196C74.38 59.0429 72.4959 60.3567 70.4006 60.3567C68.3108 60.3567 66.4026 59.0622 66.4026 56.2378C66.4026 53.4111 68.3108 52.115 70.4006 52.115C72.4959 52.115 74.38 53.3957 74.38 56.2196ZM68.5105 56.2196C68.5105 57.223 68.8192 58.6195 70.4006 58.6195C71.9842 58.6195 72.2726 57.2384 72.2726 56.2378C72.2726 55.2311 71.9842 53.8494 70.4006 53.8494C68.8192 53.8494 68.5105 55.2156 68.5105 56.2196Z" fill="#5D6163"/>
<path d="M25.4086 47.5391C27.1553 47.5391 31.4566 47.2325 34.6709 44.8811V46.6647H41.1563L41.1629 38.8221L43.871 36.0137L49.7659 46.6647H57.5473L48.6169 31.446L57.3151 21.8541H49.3493L41.1629 31.2651V13.1862H34.6709V16.0464C32.6942 13.92 29.4897 12.3118 24.4929 12.3118C13.6771 12.3118 11.6465 18.904 11.6465 22.5939C11.6465 27.6645 14.3672 30.4823 19.1065 31.6334L25.8258 33.2907C29.3698 34.1684 31.9039 34.8129 31.9039 37.441C31.9039 40.9463 28.2185 41.775 24.9035 41.775C18.8275 41.775 17.8166 38.2261 17.8166 36.3362H11.1407C11.1407 40.4854 13.2578 47.5391 25.4086 47.5391M29.8298 27.5757L21.6863 25.5893C20.3018 25.2673 18.1379 24.7116 18.1379 22.0873C18.1379 19.0886 21.3154 18.0731 23.9844 18.0731C30.0599 18.0731 30.6146 21.6269 30.7951 23.1464H34.6709V29.3868C33.2489 28.5548 31.5705 28.0146 29.8298 27.5757Z" fill="#5D6163"/>
</g>
<defs>
<clipPath id="clip0_36_2530">
<rect width="102" height="73" fill="white"/>
</clipPath>
</defs>
</svg>
