<svg width="221" height="87" viewBox="0 0 221 87" fill="none" xmlns="http://www.w3.org/2000/svg">
<path d="M208.525 26.4779C208.525 26.4779 198.428 37.4952 196.685 39.3993V26.4779H188.562V61.7997H196.685V49.8834C196.938 49.6175 198.592 47.8732 199.267 47.1632C200.03 48.2774 209.296 61.7997 209.296 61.7997H219.729C219.729 61.7997 205.559 41.9104 204.983 41.099C205.666 40.3967 219.213 26.4779 219.213 26.4779H208.525M155.177 38.2221L155.129 38.8799H163.155L163.275 38.4296C163.799 36.4686 164.77 32.8218 170.126 32.8218C171.438 32.8218 175.699 33.3458 177.207 39.6744H168.015V46.7729H177.567C177.166 49.8326 175.671 55.4558 170.078 55.4558C166.519 55.4558 164.044 53.2382 163.286 49.3731L163.188 48.8814H155.051L155.186 49.6067C156.727 57.9208 162.206 62.6895 170.219 62.6895C180.006 62.6895 186.086 55.6002 186.086 44.1864C186.086 32.8879 179.82 25.5881 170.126 25.5881C160.488 25.5881 155.62 32.1364 155.177 38.2221M147.228 26.4779C147.228 26.4779 141.498 42.27 140.653 44.5983C139.594 42.35 132.114 26.4779 132.114 26.4779H122.904C122.904 26.4779 136.447 52.897 136.742 53.4748C135.763 55.2729 135.346 55.5495 133.847 55.5495C133.067 55.5495 131.905 55.2821 131.388 55.0424L130.543 54.6505V62.1316L130.996 62.2484C131.767 62.4467 133.952 62.6895 135.403 62.6895C138.952 62.6895 141.464 61.623 143.794 56.1719C143.794 56.1703 156.403 26.4779 156.403 26.4779H147.228M98.5666 30.3021C95.5705 33.5816 93.9877 38.3825 93.9877 44.187C93.9877 55.5993 100.032 62.6901 109.762 62.6901C117.772 62.6901 123.249 57.9214 124.79 49.6073L124.925 48.8804H116.79L116.693 49.3722C115.931 53.2388 113.455 55.4549 109.897 55.4549C104.152 55.4549 102.104 49.6826 102.104 44.2792C102.104 35.8315 106.131 32.8209 109.897 32.8209C115.214 32.8209 116.181 36.4692 116.702 38.4271L116.823 38.8789H124.847L124.799 38.2212C124.353 32.137 119.485 25.5872 109.853 25.5872C105.285 25.5872 101.383 27.2177 98.5666 30.3021" fill="#717073"/>
<path d="M57.4401 50.4652C57.0903 50.8112 45.2811 62.3223 44.4536 63.1453C46.0609 64.2884 52.9618 68.5313 62.1897 65.4009C62.8908 65.1525 64.1299 64.8401 64.8557 64.4956L65.5923 63.7138C67.8222 61.1504 70.7503 57.6938 72.3961 50.4652C69.7347 49.3512 66.6141 48.6196 63.76 48.6196C61.302 48.6196 59.0428 49.1607 57.4401 50.4652" fill="url(#paint0_linear_36_2568)"/>
<path d="M37.2455 15.9661C37.2455 15.9661 34.1832 16.7946 34.1787 16.7961L32.4387 17.4255C29.8603 18.4713 27.5598 20.003 25.4005 21.7355C35.9413 18.5844 43.4287 24.7537 43.546 24.8533C43.546 24.8533 56.5825 35.3734 56.9461 35.7386C60.1662 38.9757 67.6387 39.2473 71.1247 36.5354C70.2832 32.8954 66.9384 26.5028 63.3472 23.4182L62.351 22.5006C59.6448 20.2219 57.3759 18.7429 53.8959 17.3319L52.0537 16.683C52.0537 16.683 49.1251 15.9239 49.1236 15.9239C47.2108 15.5285 45.0425 15.3564 43.0801 15.3564C41.1223 15.3564 39.1599 15.5602 37.2455 15.9661" fill="url(#paint1_linear_36_2568)"/>
<path d="M21.5912 55.8181C21.5912 57.7419 21.8735 59.856 22.5958 62.1053C22.8598 62.9036 23.1891 63.7112 23.5715 64.5372L23.617 64.6416C26.3272 67.3131 29.4608 69.3996 32.9449 70.8244L34.7081 71.4615L37.7992 72.3106C39.7324 72.7205 41.7188 72.9293 43.7006 72.9293C45.6794 72.9293 47.6627 72.7957 49.5929 72.3873C49.5929 72.3873 52.7507 71.5828 52.7553 71.5813L54.8448 70.8244C57.4473 69.7589 60.0543 68.2036 62.2349 66.4333C51.5884 69.6406 43.3577 63.3704 43.2681 63.2998L43.2499 63.2844C43.2499 63.2844 25.8765 45.7096 24.9585 44.7822C24.1208 45.9675 21.5912 50.0346 21.5912 55.8181" fill="url(#paint2_linear_36_2568)"/>
<path d="M25.6264 22.8675C24.9436 23.1144 24.2349 23.405 23.5261 23.7408L23.4652 23.7634C20.8086 26.4557 18.7403 29.5711 17.3289 33.0238L16.6918 34.7675L15.8505 37.8423C15.4435 39.7531 15.2408 41.7196 15.2408 43.6876C15.2408 45.6557 15.4435 47.6282 15.8505 49.542L16.6918 52.6123L17.3289 54.359C18.3882 56.9489 19.9322 59.2557 21.6895 61.4135C21.0433 59.2753 20.7445 57.2425 20.7445 55.3919C20.7445 48.1055 24.7348 43.3323 24.7897 43.269L24.811 43.245C24.811 43.245 42.2627 26.007 43.1833 25.099C42.0036 24.2663 37.9615 21.7532 32.2383 21.7517C30.2264 21.7517 28.0057 22.0634 25.6265 22.8675" fill="url(#paint3_linear_36_2568)"/>
<path d="M77.635 41.8366V41.6432C79.1424 38.3737 81.9757 38.3082 85.0963 41.2869C85.0963 36.3011 84.0334 32.3433 81.6507 30.1078C78.2806 27.0941 74.7549 29.057 71.8732 24.9576C71.533 21.382 73.9778 19.8668 78.1778 20.8703C75.6711 16.5942 72.7728 13.7054 69.6219 12.9653C68.9129 12.8054 68.2718 12.7643 67.6565 12.8358C66.4666 12.8952 65.4385 13.2531 64.4422 13.5485C63.9266 13.7054 63.4065 13.8683 62.894 13.9719C62.5402 14.0313 62.1864 14.0952 61.7979 14.0952C60.8559 14.1592 59.8173 13.9947 58.5941 13.4206C56.5697 10.5151 57.8609 8.06483 61.7979 6.80088C61.8976 6.77958 61.9672 6.74758 62.0277 6.70494C61.9672 6.67751 61.8976 6.64098 61.7979 6.61814C59.6464 5.37855 57.5539 4.50293 55.655 4.08415C53.818 3.69583 52.1459 3.66385 50.6718 4.11616C47.2609 5.28264 46.5201 8.13489 43.7835 9.45976C43.203 9.75823 42.4697 9.98057 41.5958 10.0796H41.4038C38.1547 8.55215 38.0897 5.70294 41.0455 2.55981C37.2536 2.55981 34.0333 3.2116 31.7185 4.56996C31.0442 4.99026 30.4334 5.47604 29.9133 6.02731C27.2146 9.14454 28.5934 12.376 25.7314 15.1323C25.4759 15.3942 25.1629 15.6318 24.8318 15.88H24.6746H24.6383C24.0608 15.9151 23.5482 15.88 23.0629 15.7856C20.7769 15.2313 19.9438 12.9653 20.7769 9.52981C20.4624 9.72169 20.1389 9.91661 19.8153 10.1115C16.084 12.478 13.5394 15.1643 12.8651 18.0805C11.964 22.5607 15.4701 24.6652 13.2854 29.2946C10.3554 31.4007 7.84711 30.0408 6.61944 25.8652C4.14597 30.2053 3.11183 34.1875 4.04921 37.3002C5.49308 41.5488 9.42251 41.6432 9.99855 46.4706V46.6686C8.52142 49.9396 5.65787 50.034 2.53882 47.0584C2.53882 52.0137 3.6289 56.002 6.01015 58.239C9.38169 61.2162 12.909 59.2594 15.7952 63.3573C16.1323 66.9298 13.6891 68.4435 9.4845 67.44C12.0003 71.7496 14.8926 74.6673 18.0449 75.3831C18.6875 75.5155 19.268 75.5445 19.8153 75.5445C21.0067 75.479 22.0333 75.1562 23.0629 74.8333C23.5785 74.6673 24.094 74.509 24.6383 74.3734H24.6746C25.0269 74.314 25.3837 74.2425 25.7314 74.2181C26.755 74.1572 27.839 74.311 29.109 74.9125C31.1213 77.8409 29.7939 80.3231 25.7314 81.5764C25.7314 81.5764 25.7027 81.6054 25.6694 81.6054C25.7027 81.6419 25.7314 81.6419 25.7314 81.6632C27.8571 82.8693 29.8544 83.7053 31.7185 84.1652C33.6765 84.619 35.4484 84.6541 37.0253 84.1652C40.4014 83.0322 41.1513 80.212 43.7835 78.881C44.4246 78.5551 45.1639 78.3313 46.0998 78.2049H46.2918C49.5454 79.7262 49.6119 82.5815 46.6486 85.7216C50.2802 85.7216 53.3735 85.1383 55.655 83.8774C56.4608 83.419 57.1714 82.8982 57.7822 82.251C60.4462 79.1719 59.1324 76.0014 61.7979 73.277C62.1229 72.9526 62.4782 72.6587 62.894 72.3648C62.8638 72.3984 62.8335 72.3983 62.8335 72.3983C62.8335 72.3648 62.8637 72.3648 62.894 72.3374C62.894 72.3374 62.9257 72.3054 62.956 72.3054C62.9363 72.3237 62.9182 72.3435 62.894 72.3648C63.4398 72.3374 63.9644 72.3648 64.4422 72.4318C66.8476 72.8887 67.7532 75.1897 66.9156 78.7242C67.1727 78.5901 67.4297 78.4272 67.6565 78.2612C71.5209 75.8658 74.1259 73.1125 74.8048 70.1323C75.7043 65.6263 72.1907 63.5568 74.3512 58.9167C74.3512 58.9517 74.3164 58.9883 74.3164 59.0142C77.2465 56.9416 79.7517 58.3045 80.9794 62.4512C83.4559 58.1401 84.4885 54.1548 83.5481 51.0437C82.133 46.798 78.1778 46.6686 77.635 41.8366M67.6565 23.2018C72.5172 28.8119 75.476 36.1382 75.476 44.1407C75.476 52.1462 72.5172 59.471 67.6565 65.075C66.6616 66.2476 65.5958 67.3105 64.4422 68.3141C63.9266 68.7359 63.4065 69.1593 62.894 69.578C62.5402 69.84 62.1864 70.1004 61.7979 70.3608C59.9034 71.6902 57.8457 72.8217 55.655 73.7308C51.9871 75.2201 47.9655 76.0348 43.7835 76.0348C39.5366 76.0348 35.4484 75.1897 31.7185 73.6318C29.6276 72.7242 27.6001 71.6247 25.7314 70.2953C25.3837 70.0349 25.0269 69.776 24.6746 69.5171L24.6383 69.4852C24.094 69.0618 23.5785 68.6476 23.0629 68.1847C21.9033 67.1842 20.8117 66.0816 19.8153 64.9136C15.0498 59.3431 12.1591 52.0488 12.1591 44.1407C12.1591 36.1976 15.0498 28.9444 19.8153 23.3312C20.8117 22.1663 21.9033 21.0668 23.0629 20.0632C23.5785 19.6064 24.094 19.183 24.6383 18.7643C24.6383 18.7643 24.6746 18.7643 24.6746 18.7322C25.0269 18.4688 25.3837 18.2145 25.7314 17.9571C27.6001 16.6871 29.6276 15.5541 31.7185 14.6815C35.4484 13.1267 39.5366 12.2496 43.7835 12.2496C47.9655 12.2496 51.9871 13.0902 55.655 14.581C57.8457 15.4627 59.9034 16.5942 61.7979 17.9191C62.1864 18.1505 62.5402 18.4414 62.894 18.7048C63.4065 19.0916 63.9266 19.5043 64.4422 19.9338L67.6565 23.2018" fill="#C6C6C7"/>
<defs>
<linearGradient id="paint0_linear_36_2568" x1="73.9105" y1="44.8552" x2="34.8817" y2="78.7797" gradientUnits="userSpaceOnUse">
<stop stop-color="#D4D4D5"/>
<stop offset="0.869568" stop-color="#717073"/>
<stop offset="1" stop-color="#717073"/>
</linearGradient>
<linearGradient id="paint1_linear_36_2568" x1="40.4186" y1="18.6403" x2="71.5869" y2="53.0203" gradientUnits="userSpaceOnUse">
<stop stop-color="#FFF799"/>
<stop offset="1" stop-color="#FFF200"/>
</linearGradient>
<linearGradient id="paint2_linear_36_2568" x1="52.2031" y1="68.0273" x2="16.5721" y2="37.2471" gradientUnits="userSpaceOnUse">
<stop stop-color="#AAA9AB"/>
<stop offset="1" stop-color="#717073"/>
</linearGradient>
<linearGradient id="paint3_linear_36_2568" x1="14.8509" y1="54.6469" x2="41.261" y2="28.1904" gradientUnits="userSpaceOnUse">
<stop stop-color="#C5CA74"/>
<stop offset="0.953415" stop-color="#9FA617"/>
<stop offset="1" stop-color="#9FA617"/>
</linearGradient>
</defs>
</svg>
