<svg width="139" height="139" viewBox="0 0 139 139" fill="none" xmlns="http://www.w3.org/2000/svg">
<g filter="url(#filter0_d_36_2549)">
<path d="M92.0812 26.7091C93.0256 27.2032 93.9459 27.7571 94.8397 28.3527C95.7335 28.9482 96.5923 29.578 97.4247 30.2286C98.3125 30.9208 99.1111 31.5836 99.9037 32.2403C100.567 32.7967 101.237 33.3458 101.874 33.8557C103.79 35.3807 105.548 37.0523 107.134 38.8891C108.719 40.7259 110.12 42.7205 111.31 44.8972C112.873 47.7368 114.386 50.6387 115.58 53.6654C116.786 56.7202 117.663 59.8948 117.919 63.2553C117.998 64.2813 118.015 65.3305 117.987 66.3896C117.959 67.4437 117.881 68.4807 117.775 69.4957C117.675 70.4312 117.551 71.3667 117.401 72.3023C117.25 73.2378 117.082 74.1611 116.893 75.0795C116.715 75.9575 116.547 76.8478 116.385 77.738C116.156 78.9793 115.927 80.2266 115.648 81.4617C115.457 82.2958 115.245 83.1224 114.995 83.9503C114.743 84.7782 114.453 85.5939 114.13 86.3876C113.349 88.2867 112.321 90.033 111.294 91.7781C110.953 92.3565 110.612 92.9337 110.216 93.6308C109.356 95.1557 108.29 96.5278 107.223 97.8987C107 98.1824 106.776 98.471 106.458 98.8904C104.905 100.931 103.298 102.892 101.55 104.718C99.7977 106.548 97.9053 108.248 95.7889 109.745C94.5542 110.623 93.2713 111.44 91.9475 112.199C90.6297 112.952 89.2902 113.639 87.9386 114.245C87.3363 114.517 86.71 114.783 86.0511 115.045C85.409 115.3 84.7609 115.533 84.102 115.736C83.0806 116.06 82.053 116.308 81.0255 116.512C80.0197 116.71 78.9814 116.876 77.9262 117.022L76.6192 117.209C75.005 117.437 73.3981 117.669 71.7334 117.821C70.8456 117.906 69.947 117.969 69.0472 117.991C68.1257 118.014 67.2162 117.996 66.3285 117.922C65.9044 117.888 65.4853 117.832 65.0721 117.752C64.6758 117.679 64.2626 117.587 63.8386 117.475C62.8063 117.203 61.8342 116.851 60.8681 116.505L60.785 116.477C60.1827 116.256 59.59 116.046 59.1154 115.887C58.5854 115.706 58.0325 115.53 57.4459 115.36C56.8255 115.185 56.1401 114.986 55.2523 114.72C54.5368 114.51 53.8069 114.289 53.0588 114.062C52.4336 113.868 51.8422 113.683 51.3339 113.513C50.7918 113.332 50.2232 113.138 49.6197 112.917C48.732 112.594 47.855 112.243 47.007 111.846C46.1361 111.437 45.2977 110.99 44.4942 110.48C43.651 109.947 42.8476 109.346 42.0718 108.705C41.3021 108.071 40.5697 107.413 39.8554 106.744C39.3977 106.313 38.9339 105.871 38.4593 105.411V105.406C37.8052 104.771 37.421 104.397 37.0849 104.063L35.9911 102.986C35.1985 102.204 34.3999 101.421 33.5844 100.622L33.2832 100.327C32.216 99.2842 31.1559 98.2472 30.1224 97.1588C29.6201 96.6256 29.1346 96.0986 28.6817 95.5715C28.2131 95.0273 27.7602 94.466 27.3302 93.8766C26.699 93.0144 26.1352 92.1254 25.6209 91.2009C25.1126 90.2825 24.6608 89.3298 24.2537 88.3393C23.4105 86.2873 22.6516 84.1729 22.0758 82.0071C21.5012 79.8304 21.1097 77.5974 21.0206 75.3301C21.0037 74.9963 20.9977 74.6502 20.9977 74.298C20.9977 73.9532 21.0025 73.612 21.0206 73.2842C21.1832 69.3906 22.0867 65.6999 22.9973 61.9933C23.2093 61.1201 23.4273 60.2531 23.5779 59.5964C23.7899 58.7 23.9899 57.7828 24.1862 56.8645C24.432 55.7247 24.6825 54.5911 24.9403 53.5321C25.186 52.5403 25.4486 51.5424 25.7666 50.5555C26.0859 49.5638 26.4484 48.583 26.8773 47.6365C28.7588 43.4872 31.1547 39.4284 34.1698 35.9774C36.7777 33.0009 39.8482 30.4744 43.4595 28.722C44.5653 28.1888 45.7036 27.6679 46.8757 27.164C48.0309 26.6651 49.1813 26.1894 50.3316 25.7296C51.4435 25.2881 52.571 24.8515 53.7213 24.4199C54.8886 23.9894 56.0329 23.5809 57.1496 23.2067C58.3385 22.8093 59.5503 22.4534 60.7946 22.1465C62.0293 21.8408 63.2736 21.5974 64.5348 21.4152C66.3273 21.1596 68.1365 21.041 69.9506 21.0068C71.7551 20.9725 73.5523 21.0178 75.3387 21.0911C78.3586 21.2159 81.2568 21.9472 84.049 22.9842C86.8123 24.0102 89.4757 25.348 92.0607 26.6969L92.08 26.7018L92.0812 26.7091Z" fill="#DE3B21"/>
<path fill-rule="evenodd" clip-rule="evenodd" d="M81.6639 83.5424C81.4242 82.7891 81.217 82.448 81.1387 81.5357C80.8532 78.339 81.7531 74.7902 81.4061 71.1521C81.0713 67.6375 77.0347 68.4996 75.1303 69.3948C73.1367 70.3352 73.6944 70.4208 73.7956 72.4887C73.8402 73.3447 73.6559 80.4522 73.4824 80.7017C71.7623 81.6249 72.1092 77.9868 72.2369 77.0281C72.4272 75.5484 72.6838 73.6957 72.2598 72.1255C71.1985 68.2086 65.8948 70.4428 64.8901 71.4798C65.3539 75.7758 63.9855 80.7188 65.3202 83.485C66.0622 85.0319 67.3969 85.9894 69.4519 85.8427C70.4396 85.7693 71.4226 85.5027 72.2164 85.0833C73.1825 84.5733 73.4451 84.1196 74.0365 83.5645C74.5665 84.4315 74.5954 84.7433 75.382 85.2251C76.0012 85.6104 76.8107 85.7461 77.7093 85.6666C78.6031 85.5871 79.4511 85.3034 80.1208 84.9072C81.0026 84.3862 81.1146 84.0854 81.6675 83.5351L81.6615 83.54L81.6639 83.5424ZM71.9827 93.1336C72.385 93.3268 71.8153 94.5509 72.9994 95.0939C72.9717 95.8313 72.3067 96.2226 71.849 96.2569C70.5986 96.3474 70.8938 95.089 71.0395 94.6695C70.1626 95.0499 69.5711 94.8285 69.0965 94.041C68.7845 94.5057 68.5605 95.0217 67.5667 95.2822C66.8861 95.3275 66.444 95.0046 66.1995 94.4898C65.7647 93.5714 66.7584 91.265 65.7249 89.9162C65.9092 89.7291 66.5958 89.4515 67.2379 89.4515C68.7231 89.4515 68.6508 91.276 68.4991 92.3754C68.4545 92.6921 68.3473 93.3953 68.9182 93.0945C68.9737 93.0101 69.0471 90.6572 69.0291 90.3735C68.9953 89.6875 68.811 89.6545 69.476 89.3536C70.1072 89.0638 71.3298 88.906 71.5527 89.9541C71.6249 90.7196 71.525 91.4729 71.4744 92.1883C71.4069 93.0835 71.2515 93.5714 71.9827 93.1397L71.9851 93.1348L71.9827 93.1336ZM65.802 93.9664C66.2043 94.1596 65.6394 95.3837 66.8187 95.9279C66.791 96.6653 66.126 97.0554 65.6683 97.0909C64.4179 97.1814 64.7131 95.923 64.8588 95.5036C63.9819 95.8827 63.3904 95.6625 62.9158 94.8738C62.6026 95.3385 62.3798 95.8545 61.386 96.115C60.7042 96.1603 60.2633 95.8374 60.0188 95.3214C59.584 94.403 60.5777 92.0966 59.5442 90.7477C59.7285 90.5606 60.4151 90.283 61.0572 90.283C62.5424 90.283 62.4641 92.1027 62.3184 93.207C62.2738 93.5249 62.1678 94.2281 62.7376 93.9273C62.7942 93.8417 62.8664 91.49 62.8496 91.2063C62.8159 90.5203 62.6315 90.4921 63.2965 90.1852C63.9277 89.8966 65.1503 89.7376 65.3732 90.7856C65.4454 91.5512 65.3455 92.3045 65.2949 93.0186C65.2274 93.9138 65.0708 94.4017 65.8032 93.9713L65.8056 93.9652L65.802 93.9664ZM75.6735 92.5038C75.4338 93.6717 74.3895 94.2892 73.1837 93.9774C71.6767 93.5861 71.3527 90.2366 73.0837 88.9733C73.7992 88.4511 75.0544 88.3093 75.6796 88.8535L75.7579 88.5588C75.8867 88.2298 77.2094 88.2017 77.4382 88.2701C77.6225 88.3264 77.79 88.4511 77.8731 88.6272C78.0249 88.9611 77.9297 90.3735 77.9237 90.7918C77.9189 91.3482 77.8683 92.538 78.3043 92.889C78.22 93.0248 75.8928 94.6353 75.6856 92.5038L75.6747 92.505L75.6735 92.5038ZM74.3726 91.4032C74.3678 91.04 74.6292 90.3552 75.2038 90.3209C75.1652 90.645 75.2315 92.1186 74.7508 92.1577C74.4714 92.181 74.3714 91.8006 74.3714 91.3983L74.3726 91.4032V91.4032ZM46.9925 92.5539C47.0033 92.6334 47.1985 92.8597 47.272 93.0186C47.7803 94.1743 47.1491 96.2275 47.6743 96.8218C48.1043 97.3037 49.3499 97.1398 49.9293 96.7203C50.2485 96.488 50.2533 96.3743 50.2533 95.9389C50.2533 95.4974 50.2147 94.1645 50.3087 93.8869C51.4193 93.2865 50.0124 96.1541 51.3808 97.2878C51.7602 97.5996 52.3974 97.6852 52.9612 97.5654C53.5358 97.4406 54.0441 97.1178 53.9827 96.455C53.7923 96.4269 53.7092 96.296 53.6309 96.1493C53.1901 95.3385 53.6357 93.8478 53.4864 93.0211C53.1792 91.3714 51.4422 91.2075 50.4773 92.2213C50.3484 92.3522 50.2424 92.5332 50.1581 92.7093C50.1136 92.7997 50.0798 92.8792 50.0413 92.9648C50.0184 93.0162 50.0076 93.0492 49.9798 93.1177C49.975 93.1348 49.957 93.1801 49.9521 93.1911L49.9244 93.2644C49.863 92.6921 49.7907 92.2323 49.4896 91.9376C48.8692 91.3262 47.9321 91.3702 47.39 91.8361C47.2226 91.978 46.9708 92.2947 47.0045 92.5674L46.9925 92.5539V92.5539ZM59.5322 95.654C59.4539 95.4045 59.3864 95.2908 59.3587 94.9851C59.2696 93.9248 59.5707 92.7521 59.4587 91.5438C59.3527 90.376 58.0132 90.6536 57.382 90.9434C56.7183 91.2491 56.9014 91.2772 56.9351 91.9633C56.9459 92.247 56.8797 94.5986 56.8231 94.6842C56.2533 94.9851 56.3713 93.783 56.4159 93.4601C56.4834 92.9661 56.5665 92.3546 56.4268 91.8337C56.081 90.5301 54.3163 91.2552 53.9815 91.5952C54.1332 93.0174 53.6743 94.6561 54.1104 95.5745C54.3561 96.0906 54.797 96.4085 55.4775 96.3681C55.8064 96.3449 56.1304 96.2605 56.393 96.1248C56.7122 95.9597 56.8002 95.8081 56.9953 95.6259C57.1676 95.9157 57.1796 96.0172 57.4422 96.1823C57.6482 96.3131 57.9168 96.3571 58.2131 96.3351C58.5095 96.3119 58.7938 96.2226 59.0118 96.0918C59.3021 95.9218 59.3406 95.8203 59.5249 95.6442L59.531 95.6552L59.5322 95.654ZM56.6002 84.1759C55.8907 87.633 52.8034 89.4808 49.2535 88.5967C44.8206 87.4912 43.8762 77.6004 48.974 73.8204C51.0796 72.2612 54.797 71.8027 56.6231 73.39L56.846 72.5168C57.2314 71.5422 61.1282 71.4297 61.7932 71.6217C62.3461 71.7806 62.8375 72.1426 63.0724 72.6697C63.5133 73.6505 63.223 77.8156 63.2122 79.052C63.1893 80.6845 63.0495 84.2163 64.318 85.23C64.0722 85.6385 57.2049 90.4445 56.6026 84.1649L56.6014 84.1771L56.6002 84.1759ZM52.7697 80.9572C52.7648 79.8909 53.5394 77.8511 55.2258 77.7435C55.1138 78.69 55.3041 83.0545 53.8911 83.1792C53.0648 83.2526 52.7805 82.1312 52.7685 80.9523V80.9572H52.7697ZM28.4444 75.6853C29.5273 75.4591 33.1844 74.5065 35.5695 74.7841L35.0443 86.8235C35.0057 87.929 34.7877 89.3169 35.502 90.151C36.5632 91.3873 38.1653 91.0742 39.6891 90.9043C41.0117 90.7575 43.4137 89.7083 43.6365 88.966C43.6642 88.8694 43.9208 74.6202 43.8377 73.8669C50.275 73.2029 50.9953 69.8424 50.7339 67.2352C50.5436 65.3189 50.0304 64.5485 49.4992 64.7637C42.2187 67.6998 34.86 66.669 31.1366 67.9261C26.6471 69.4449 27.6072 75.431 28.4456 75.6915V75.6853H28.4444ZM79.7643 60.6535C78.5356 56.7598 79.9486 55.5076 79.6017 51.8964C79.2668 48.3818 75.2303 49.2439 73.3258 50.1391C71.3322 51.0795 71.8899 51.1651 71.9911 53.233C72.0249 53.8506 71.9237 56.4125 71.8008 57.8984C71.7334 58.6981 71.7334 58.9696 71.3045 59.6446C70.6288 60.7049 69.953 60.4102 69.9373 59.2704C69.9144 57.4398 70.6854 53.7222 70.4565 52.8772C69.3953 48.9602 64.0867 51.1945 63.0869 52.2315C63.5506 56.5275 62.2268 61.7651 63.5555 64.5313C64.2975 66.0783 65.6322 67.0358 67.6872 66.8891C71.0479 66.2935 71.9863 62.7863 72.1983 61.8385C73.103 63.8795 78.3622 62.7569 79.7631 60.6535V60.6523L79.7643 60.6535ZM77.207 46.9828C81.3001 46.7052 81.4049 51.4598 81.2712 54.045C81.2038 55.4624 81.0038 62.7508 81.1086 64.1229C81.2483 65.8631 83.1696 65.6992 84.5983 65.5402C85.9884 65.3861 88.3891 64.4922 88.4228 62.6897C88.4276 62.3558 88.4505 61.9926 88.4674 61.6245L88.5625 57.0338C91.1367 59.5224 91.945 64.3063 96.8416 63.756C100.331 63.3647 101.811 61.7774 101.531 58.297C101.508 57.9962 100.7 58.2579 99.6495 57.8947C99.0135 57.6733 95.8635 55.8256 95.1889 55.049C96.0153 54.7543 97.5054 52.8221 97.9306 51.7215C98.0534 51.4097 98.1486 51.1651 98.2377 50.8251C98.4004 50.1795 98.4774 49.4139 98.416 48.6141C98.2317 46.3017 96.3104 45.9727 94.2181 46.205C93.1291 46.3237 92.0631 46.6135 91.3644 47.0831C90.991 47.3326 91.1247 47.5649 90.985 48.4209C90.7115 50.1036 90.4489 51.5332 89.7238 53.0863C89.5057 53.5449 89.048 54.4241 88.6469 54.6956C88.7023 54.3324 88.7083 53.9704 88.73 53.562C88.9589 49.8211 89.6455 43.7959 84.9789 42.9852C82.2036 42.5033 78.8657 43.7054 77.207 46.9926V46.9816V46.9828ZM66.8669 49.239C68.3413 47.9807 69.1001 42.9069 67.1403 41.8356C64.1361 40.1921 58.7094 43.6724 56.2473 44.3303C53.2322 45.1411 48.9728 45.7355 46.3264 44.0638C45.5229 43.5538 45.818 43.3374 44.5231 44.0687C40.3251 46.4264 41.2454 53.2061 47.119 53.5913C49.5414 53.7503 50.8483 53.3871 53.0539 52.9505L52.6468 65.0058C52.5408 67.0065 52.1601 69.4669 54.55 70.1359C55.5209 70.4073 56.5376 70.3511 57.7494 70.1077C60.4573 69.5697 61.7751 67.2682 61.5185 66.5821L61.027 65.1538C60.7428 63.9639 61.1439 51.4378 61.0993 51.17C61.5571 50.7163 64.8516 49.1473 66.8669 49.2378V49.239V49.239ZM100.902 75.4701C100.885 74.3879 101.019 73.3105 100.696 72.0803C100.567 71.5984 100.255 70.9075 99.9145 70.7143C99.2941 70.3633 98.8376 70.8048 98.8436 71.6094C98.8436 71.8308 99.2351 72.9192 99.3122 73.2371C100.005 76.0938 100.194 80.8374 96.4875 81.7851C93.3664 82.5788 92.0498 80.8215 91.892 78.2314C91.8077 76.8202 92.0486 75.239 92.3726 73.7422C92.6521 72.4667 92.1377 70.5626 91.0994 71.7073C90.0779 72.8348 91.362 82.3636 90.2502 85.5321C89.3455 88.1222 87.4579 90.3894 84.5043 90.6279C81.5567 90.8663 79.8811 89.7095 80.0823 86.7281C80.1498 86.6596 80.1606 86.6547 80.2726 86.563L80.781 86.2059C84.5886 83.3994 81.4965 71.865 84.5055 68.1352C85.7233 66.6274 88.5469 65.4094 90.9259 65.6307C92.2546 65.7555 93.7446 66.4354 94.4325 67.3195L95.148 68.3223C97.3307 64.9667 100.903 62.9831 104.232 63.4931C108.273 64.1119 109.05 69.1783 108.815 74.416C108.743 76.0485 108.81 78.4968 111.288 80.3397C106.247 83.8482 100.982 81.9441 100.899 75.4713L100.903 75.4701H100.902ZM78.1176 67.5519C78.7705 66.9062 79.0391 65.9083 78.8596 65.2113C78.6031 64.2305 77.6418 63.6019 76.8998 63.5335C74.5159 63.3182 70.4228 66.1297 71.2214 67.9493C71.4166 68.3969 71.8249 68.7711 72.2092 68.9863C72.8006 69.3092 72.8343 69.0255 73.421 68.6806C74.6942 67.9322 77.0841 67.3477 78.1164 67.5519H78.1176V67.5519Z" fill="#FEFEFE"/>
</g>
<defs>
<filter id="filter0_d_36_2549" x="0.59799" y="0.595396" width="137.801" height="137.805" filterUnits="userSpaceOnUse" color-interpolation-filters="sRGB">
<feFlood flood-opacity="0" result="BackgroundImageFix"/>
<feColorMatrix in="SourceAlpha" type="matrix" values="0 0 0 0 0 0 0 0 0 0 0 0 0 0 0 0 0 0 127 0" result="hardAlpha"/>
<feOffset/>
<feGaussianBlur stdDeviation="10.1999"/>
<feComposite in2="hardAlpha" operator="out"/>
<feColorMatrix type="matrix" values="0 0 0 0 0 0 0 0 0 0 0 0 0 0 0 0 0 0 0.25 0"/>
<feBlend mode="normal" in2="BackgroundImageFix" result="effect1_dropShadow_36_2549"/>
<feBlend mode="normal" in="SourceGraphic" in2="effect1_dropShadow_36_2549" result="shape"/>
</filter>
</defs>
</svg>
