<svg width="50" height="69" viewBox="0 0 50 69" fill="none" xmlns="http://www.w3.org/2000/svg">
<path fill-rule="evenodd" clip-rule="evenodd" d="M22.0132 9.60142C16.6 25.1531 14.5543 30.5865 14.1114 30.5904C13.8822 30.5924 12.1661 26.054 10.2985 20.5047L6.90254 10.4151H3.45095H0L3.16213 19.3656C4.90152 24.2887 7.13179 30.5865 8.11805 33.3608L9.91055 38.4057L14.1626 38.3939L18.4139 38.3822L23.4255 24.5614C26.1823 16.9597 29.312 8.32361 30.3805 5.37028L32.3233 0H28.8393H25.3547L22.0132 9.60142ZM111.296 7.97406L105.837 15.9481L105.513 11.066L105.19 6.18396H102.275H99.3613L99.1877 22.3313L99.0148 38.4779L102.102 38.2794L105.19 38.0802L105.378 32.2939C105.49 28.8531 105.912 26.0104 106.42 25.282C107.464 23.7829 107.374 23.6774 112.236 32.059L115.917 38.4057H119.203C123.137 38.4057 123.264 39.0416 117.273 28.7828C114.822 24.5881 112.469 20.4839 112.042 19.663C111.335 18.3032 111.815 17.403 117.456 9.50768C120.86 4.74343 123.646 0.65485 123.646 0.422464C123.646 0.190077 122.095 0 120.2 0H116.753L111.296 7.97406ZM129.919 7.03344C128.962 8.03719 128.179 9.10019 128.179 9.39572C128.179 9.6906 129.199 11.0667 130.445 12.4539C131.692 13.8404 132.712 15.2132 132.712 15.5042C132.712 15.7945 131.721 16.5073 130.509 17.0879C122.718 20.823 122.306 32.3994 129.807 36.8187C132.191 38.2227 133.258 38.4389 136.991 38.2742L141.376 38.0802L141.97 35.8019C142.296 34.5488 142.436 30.5572 142.281 26.9315C142.028 21.0404 141.752 19.8206 139.69 15.456C137.619 11.0719 133.282 5.20755 132.11 5.20755C131.862 5.20755 130.876 6.02903 129.919 7.03344ZM221.191 7.17795C219.748 8.901 219.471 11.0576 220.69 11.0706C221.472 11.0791 224.338 15.8414 223.693 16.0607C217.949 18.0077 214.601 24.3524 216.231 30.2018C217.805 35.8559 221.876 38.5619 228.371 38.2722C232.529 38.0867 232.693 38.0144 233.248 36.1274C235.033 30.0528 233.512 19.1071 230.047 13.1002C228.271 10.0213 224.189 5.20755 223.355 5.20755C223.072 5.20755 222.098 6.09413 221.191 7.17795ZM190.663 7.28666C190.458 8.11206 190.375 15.3785 190.48 23.434L190.67 38.0802L193.758 38.2794L196.845 38.4779L196.672 22.3313L196.498 6.18396L193.767 5.98477C191.376 5.81032 190.991 5.97241 190.663 7.28666ZM55.7585 8.29562C50.3603 11.814 48.4441 18.9978 51.1911 25.4161C52.9202 29.4565 52.4759 32.4808 49.8234 34.7239C48.7802 35.6066 47.6035 36.4366 47.2092 36.5687C46.6872 36.7438 46.6976 37.6323 47.2467 39.8267L48.0031 42.8438L50.3694 41.8641C53.4492 40.5889 55.469 38.6823 57.077 35.5291C58.681 32.3844 58.8611 26.5227 57.4383 23.7594C55.0565 19.1332 56.1775 14.9723 60.4535 12.5671C61.4183 12.0242 61.544 11.4338 61.1703 9.2089C60.6205 5.93726 59.6323 5.77062 55.7585 8.29562ZM83.4956 10.0896V13.6698H81.2291H78.9626V16.9245V20.1792H81.2291H83.4956V29.2925V38.4057H86.3916H89.2876L89.4676 29.4552L89.6476 20.5047L91.7522 20.301C93.8109 20.1011 93.8569 20.0276 93.8569 16.9245C93.8569 13.8215 93.8109 13.7479 91.7522 13.5481C89.7001 13.3495 89.6424 13.2597 89.452 9.92689L89.2558 6.50943H86.376H83.4956V10.0896ZM168.396 12.985C166.376 22.4543 169.11 33.1857 175.37 40.3585L177.927 43.2877L180.219 41.0758L182.512 38.8633L180.277 36.2393C179.048 34.7955 178.042 33.2945 178.042 32.9032C178.042 32.512 179.083 31.6287 180.356 30.9393C183.598 29.185 185.944 24.9324 185.913 20.8692C185.882 16.905 184.591 14.2889 181.493 11.9136C179.455 10.3513 178.398 10.0571 174.113 9.86114L169.111 9.63266L168.396 12.985ZM34.2796 13.3443V16.2736H37.1937H40.1078V13.3443V10.4151H37.1937H34.2796V13.3443ZM67.3061 13.3443V16.2736H70.2202H73.1343V13.3443V10.4151H70.2202H67.3061V13.3443ZM148.254 24.4104V38.4057H151.168H154.082L154.158 30.1061C154.201 25.5417 154.213 21.6256 154.187 21.405C154.06 20.3374 157.615 17.9504 160.377 17.248C163.47 16.4624 163.472 16.4591 163.669 13.4381C163.86 10.5069 163.811 10.4157 162.05 10.4437C161.051 10.4594 159.068 10.8935 157.643 11.4084C155.372 12.2293 154.964 12.226 154.334 11.3798C153.902 10.7991 152.548 10.4151 150.935 10.4151H148.254V24.4104ZM203.945 13.3443V16.2736H207.183H210.421V13.3443V10.4151H207.183H203.945V13.3443ZM178.642 17.9888C180.414 20.2521 180.338 22.2102 178.397 24.3153C175.365 27.6039 174.157 26.4094 174.157 20.1259C174.157 16.4812 174.242 16.2736 175.728 16.2736C176.656 16.2736 177.851 16.9773 178.642 17.9888ZM34.2796 29.2925V38.4057H37.1937H40.1078V29.2925V20.1792H37.1937H34.2796V29.2925ZM67.3061 29.2925V38.4057H70.2202H73.1343V29.2925V20.1792H70.2202H67.3061V29.2925ZM204.408 20.5828C204.153 20.838 203.945 24.9526 203.945 29.7266V38.4057H207.201H210.457L210.277 29.4552L210.097 20.5047L207.484 20.3114C206.046 20.2053 204.662 20.327 204.408 20.5828ZM136.03 24.4182C136.65 27.3312 136.648 30.8078 136.025 31.7947C135.569 32.5192 135.138 32.4951 133.524 31.656C130.412 30.0391 129.734 26.0983 132.123 23.5205C133.89 21.6133 135.512 21.9863 136.03 24.4182ZM227.501 24.1663C228.112 27.2394 227.986 31.7693 227.277 32.21C226.407 32.7503 222.97 30.8729 222.48 29.5886C221.576 27.2199 222.087 24.8224 223.784 23.4815C226.134 21.623 227.028 21.7877 227.501 24.1663ZM120.265 50.3264C120.128 50.7514 120.044 53.7341 120.079 56.9543C120.132 61.9249 120.308 62.8414 121.246 63.023C121.909 63.1513 122.35 62.8278 122.35 62.2126C122.35 60.5247 123.275 61.0468 124.572 63.467C125.727 65.6249 127.073 66.3663 127.771 65.231C127.945 64.9479 127.247 63.3596 126.22 61.7016L124.354 58.6871L126.33 56.1946C128.214 53.8194 128.243 53.6931 126.954 53.4958C126.106 53.3656 125.003 53.9723 123.997 55.1232L122.391 56.9575L122.371 53.6097C122.357 51.336 122.056 50.148 121.433 49.9078C120.928 49.7132 120.402 49.9013 120.265 50.3264ZM70.544 56.6321C70.544 62.154 70.7007 63.1415 71.5763 63.1415C72.1435 63.1415 72.7607 62.5557 72.9465 61.8396C73.133 61.1236 73.6887 60.5377 74.1815 60.5377C74.8077 60.5377 75.0997 61.4673 75.1516 63.6297C75.2675 68.4148 75.3264 68.6387 76.5341 68.8744C77.5528 69.0729 77.6674 68.4337 77.6674 62.5381C77.6674 56.4153 77.5819 55.9811 76.3722 55.9811C75.6528 55.9811 75.0771 56.4153 75.0771 56.9575C75.0771 57.4946 74.64 57.934 74.1057 57.934C73.3895 57.934 73.1143 57.1222 73.0579 54.842C73.0152 53.1411 73.0281 51.3842 73.0858 50.9363C73.1441 50.4891 72.5956 50.1226 71.8677 50.1226C70.623 50.1226 70.544 50.51 70.544 56.6321ZM165.879 57.7712L166.062 65.4198L170.317 65.6099C174.329 65.7889 174.615 65.7049 175.322 64.1453C176.359 61.8565 179.532 61.8416 181.016 64.1179C182.001 65.6288 183.863 66.3702 183.876 65.2571C183.88 64.9882 182.936 62.1931 181.779 59.0451C179.848 53.7894 179.544 53.3363 178.062 53.5121C176.705 53.6722 176.188 54.426 174.804 58.2594C173.2 62.706 173.102 62.8206 170.745 63.0178L168.328 63.2203V56.6711C168.328 50.5223 168.248 50.1226 167.013 50.1226C165.754 50.1226 165.705 50.4566 165.879 57.7712ZM107.027 53.3767C103.929 54.6324 104.361 58.4424 107.786 60.084C110.246 61.2635 110.839 63.1415 108.751 63.1415C108.039 63.1415 107.456 62.8486 107.456 62.4906C107.456 62.1325 106.873 61.8396 106.161 61.8396C104.602 61.8396 104.539 62.3832 105.874 64.2982C107.784 67.04 112.654 65.4647 112.627 62.1137C112.613 60.36 111.979 59.5796 109.561 58.3337C107.253 57.145 106.883 56.1614 108.508 55.5346C109.14 55.2905 109.798 55.558 110.158 56.2064C110.983 57.6879 112.637 57.5623 112.637 56.0182C112.637 54.7645 110.373 52.688 109.092 52.7674C108.727 52.7902 107.797 53.0643 107.027 53.3767ZM52.4118 61.1887C52.4118 67.6981 52.5737 69 53.3832 69C54.1389 69 54.3546 68.1323 54.3546 65.0943C54.3546 61.3937 54.4368 61.1887 55.9262 61.1887C57.5452 61.1887 60.1828 58.512 60.1828 56.8697C60.1828 55.0744 57.6656 53.3774 55.0021 53.3774H52.4118V61.1887ZM61.8179 54.4306C61.046 55.2059 60.8206 56.4439 60.9625 59.1284C61.1308 62.3324 61.3691 62.8935 62.935 63.771C64.5351 64.6673 64.8965 64.6673 66.4967 63.771C68.0625 62.8935 68.3008 62.3324 68.4692 59.1284C68.6907 54.9253 67.6804 53.3774 64.7158 53.3774C63.6985 53.3774 62.3942 53.8513 61.8179 54.4306ZM83.4956 57.2446C83.4956 61.3182 82.8759 62.4658 81.547 60.8561C80.4455 59.5223 78.9626 59.6388 78.9626 61.0585C78.9626 62.7945 80.2629 63.7925 82.5242 63.7925C85.4811 63.7925 86.0859 62.775 86.0859 57.8038C86.0859 53.8115 85.959 53.3774 84.7908 53.3774C83.6407 53.3774 83.4956 53.8115 83.4956 57.2446ZM96.4472 54.2776C96.4472 54.773 97.03 55.3315 97.7424 55.519C98.8426 55.808 99.0375 56.4069 99.0375 59.5001C99.0375 62.639 98.8685 63.1415 97.8116 63.1415C96.2723 63.1415 95.5425 64.8561 96.8649 65.3658C98.1536 65.8631 103.245 65.8559 103.742 65.356C104.467 64.6276 103.436 63.1415 102.206 63.1415C101.149 63.1415 100.98 62.639 100.98 59.5001C100.98 56.4069 101.175 55.808 102.275 55.519C102.988 55.3315 103.571 54.773 103.571 54.2776C103.571 53.6202 102.61 53.3774 100.009 53.3774C97.4082 53.3774 96.4472 53.6202 96.4472 54.2776ZM130.87 58.6266C129.746 61.5135 128.826 64.2963 128.826 64.8105C128.826 66.3546 130.743 65.8644 131.534 64.1179C132.596 61.7745 136.308 61.7902 137.374 64.1433C137.814 65.1132 138.544 65.7023 139.141 65.5695C140.357 65.2981 140.287 64.929 137.794 58.43C136.165 54.1826 135.621 53.3774 134.385 53.3774C133.146 53.3774 132.592 54.206 130.87 58.6266ZM140.932 53.8656C140.487 54.6578 140.795 62.3701 141.291 62.8694C141.541 63.1213 142.141 62.9977 142.623 62.5954C143.304 62.0278 143.917 62.2992 145.351 63.8042C148.598 67.2112 150.191 66.0844 147.193 62.5023L145.484 60.4609L146.869 59.4858C148.664 58.2217 148.743 54.9884 147.001 54.0511C145.554 53.2732 141.338 53.1437 140.932 53.8656ZM157.97 58.8948C156.964 65.3918 156.963 65.3593 158.257 65.6301C158.919 65.7687 159.262 65.3632 159.262 64.4434C159.262 63.4722 159.602 63.1116 160.376 63.2619C161.107 63.4032 161.677 64.4278 162.033 66.2387C162.371 67.9565 162.929 69 163.51 69C164.692 69 164.688 68.7871 163.321 60.375C162.216 53.57 162.138 53.3774 160.504 53.3774C158.895 53.3774 158.788 53.6098 157.97 58.8948ZM88.4528 55.8698C87.2004 57.2602 87.0113 61.8585 88.1582 63.0113C89.2668 64.1257 92.9328 63.9773 94.1347 62.7698C95.7161 61.1802 95.4622 56.9244 93.7125 55.6928C91.7969 54.3434 89.7648 54.4124 88.4528 55.8698ZM56.8775 55.9252C58.1241 56.7187 57.2764 58.5849 55.6698 58.5849C54.6984 58.5849 54.3546 58.1592 54.3546 56.9575C54.3546 55.2879 55.2806 54.909 56.8775 55.9252ZM65.976 56.2643C66.4002 56.7779 66.654 58.169 66.5407 59.3563C66.3678 61.1685 66.0757 61.5142 64.7158 61.5142C63.3559 61.5142 63.0638 61.1685 62.8909 59.3563C62.698 57.3357 63.6072 55.3302 64.7158 55.3302C64.9846 55.3302 65.5519 55.7507 65.976 56.2643ZM145.578 56.2038C146.434 57.2401 145.905 57.934 144.26 57.934C143.505 57.934 143.073 57.4607 143.073 56.6321C143.073 55.1479 144.504 54.9032 145.578 56.2038ZM153.434 58.499C153.434 61.4751 152.343 62.5889 151.1 60.8808C150.586 60.1745 149.839 59.8848 149.182 60.1387C147.264 60.8782 149.571 63.4286 152.376 63.6688C154.435 63.8458 154.817 63.6453 155.41 62.0785C156.386 59.4969 155.944 56.3639 154.567 56.1016C153.641 55.9251 153.434 56.3619 153.434 58.499ZM92.6064 60.1133C91.8293 62.2282 90.099 62.2517 89.5751 60.1543C89.2429 58.8232 89.4365 58.1592 90.3541 57.4848C91.4077 56.7102 91.681 56.733 92.348 57.6495C92.8208 58.2998 92.9211 59.256 92.6064 60.1133ZM135.927 60.0495C135.939 60.3184 135.367 60.5377 134.654 60.5377C133.328 60.5377 133.034 59.5437 133.781 57.585C134.148 56.6249 134.316 56.6822 135.054 58.0205C135.521 58.8681 135.914 59.7807 135.927 60.0495ZM179.292 59.7241C179.317 60.1719 178.755 60.5377 178.042 60.5377C176.53 60.5377 176.528 60.5293 177.466 58.139C178.134 56.4361 178.222 56.399 178.716 57.6085C179.008 58.3245 179.267 59.2769 179.292 59.7241ZM113.716 58.3681C112.495 59.5952 113.433 60.5377 115.875 60.5377C118.033 60.5377 118.465 60.321 118.465 59.2358C118.465 58.1943 118.033 57.934 116.307 57.934C115.119 57.934 113.953 58.1292 113.716 58.3681ZM161.205 59.9252C161.205 60.2624 160.914 60.5377 160.558 60.5377C160.201 60.5377 159.91 60.0808 159.91 59.5229C159.91 58.9651 160.201 58.6891 160.558 58.9104C160.914 59.1317 161.205 59.588 161.205 59.9252Z" fill="#E50239"/>
</svg>
